<svg xmlns="http://www.w3.org/2000/svg" width="210" height="298" viewBox="0 0 210 298"><style type="text/css">.st0{fill:#FFFFFF;}</style><path class="st0" d="M19.9 231.6h23v66.4h-23zM62.4 231.6h23v66.4h-23zM167.2 231.6h23v66.4h-23zM124.7 231.6h23v66.4h-23zM114.8 152.8h23v66.4h-23zM72.3 152.8h23v66.4h-23zM92 0h26.2v35.2h-26.2zM108.8 85.2v.1h-7.5v-.1l-8.1.1h-66l31.3 53.7 19.9-11.5-11.9-20.6 20.3.1v.1l18.3-.1 18.2.1v-.1l20.3-.1-11.9 20.6 19.9 11.5 31.3-53.7h-66zM189.8 13.6l-17.1 32.3-67.6.2-67.7-.2-17.1-32.3-20.3 10.8 22.9 43.3h164.29999999999998l22.9-43.3z"/></svg>
